<svg width="20" height="20" viewBox="0 0 20 20" fill="none" xmlns="http://www.w3.org/2000/svg">
<g id="AI-icon" clip-path="url(#clip0_4119_19726)">
<path id="Star 1" d="M5.20433 4.43062C5.17249 4.25135 5.33683 4.09927 5.51309 4.14487L8.78901 4.99231C9.21354 5.10213 9.66384 5.04857 10.0508 4.84223L13.0365 3.24997C13.1971 3.16429 13.3926 3.27358 13.4037 3.45531L13.61 6.83277C13.6367 7.27047 13.8268 7.68217 14.1427 7.98639L16.5796 10.3339C16.7107 10.4603 16.6672 10.6799 16.4978 10.7466L13.3494 11.9865C12.9414 12.1472 12.6086 12.4552 12.4168 12.8496L10.9372 15.8927C10.8576 16.0565 10.6353 16.0829 10.5195 15.9424L8.36733 13.3313C8.08843 12.9929 7.69265 12.7716 7.25833 12.7111L3.90693 12.2443C3.7266 12.2192 3.63274 12.0159 3.73058 11.8623L5.54886 9.00862C5.78449 8.6388 5.8727 8.19399 5.79602 7.76224L5.20433 4.43062Z" stroke="#1D1916" stroke-width="1.5"/>
<path id="Vector 59" d="M13 12.5L17 16.5" stroke="#1D1916" stroke-width="1.5" stroke-linecap="round" stroke-linejoin="round"/>
</g>
<defs>
<clipPath id="clip0_4119_19726">
<rect width="20" height="20" fill="white"/>
</clipPath>
</defs>
</svg>
