<svg width="20" height="20" viewBox="0 0 20 20" fill="none" xmlns="http://www.w3.org/2000/svg">
<g id="list-icon">
<path id="Union" fill-rule="evenodd" clip-rule="evenodd" d="M3 4.5C2.44772 4.5 2 4.94772 2 5.5C2 6.05228 2.44772 6.5 3 6.5H3.1C3.65228 6.5 4.1 6.05228 4.1 5.5C4.1 4.94772 3.65228 4.5 3.1 4.5H3ZM7 4.75C6.58579 4.75 6.25 5.08579 6.25 5.5C6.25 5.91421 6.58579 6.25 7 6.25H17C17.4142 6.25 17.75 5.91421 17.75 5.5C17.75 5.08579 17.4142 4.75 17 4.75H7ZM7 9.25C6.58579 9.25 6.25 9.58579 6.25 10C6.25 10.4142 6.58579 10.75 7 10.75H17C17.4142 10.75 17.75 10.4142 17.75 10C17.75 9.58579 17.4142 9.25 17 9.25H7ZM6.25 15C6.25 14.5858 6.58579 14.25 7 14.25H17C17.4142 14.25 17.75 14.5858 17.75 15C17.75 15.4142 17.4142 15.75 17 15.75H7C6.58579 15.75 6.25 15.4142 6.25 15ZM2 10C2 9.44772 2.44772 9 3 9H3.1C3.65228 9 4.1 9.44772 4.1 10C4.1 10.5523 3.65228 11 3.1 11H3C2.44772 11 2 10.5523 2 10ZM3 14C2.44772 14 2 14.4477 2 15C2 15.5523 2.44772 16 3 16H3.1C3.65228 16 4.1 15.5523 4.1 15C4.1 14.4477 3.65228 14 3.1 14H3Z" fill="#1D1916"/>
</g>
</svg>
