<svg width="20" height="20" viewBox="0 0 20 20" fill="none" xmlns="http://www.w3.org/2000/svg">
<g id="list-number-icon">
<path id="Vector 51" d="M7 5L17 5" stroke="#1D1916" stroke-width="1.5" stroke-linecap="round"/>
<path id="Vector 52" d="M7 10L17 10" stroke="#1D1916" stroke-width="1.5" stroke-linecap="round"/>
<path id="Vector 53" d="M7 15L17 15" stroke="#1D1916" stroke-width="1.5" stroke-linecap="round"/>
<path id="Vector 54" d="M3 4L3.65858 3.34142C3.78457 3.21543 4 3.30466 4 3.48284V6" stroke="#1D1916" stroke-linecap="round" stroke-linejoin="round"/>
<path id="Vector 55" d="M3 9L3.19098 8.80902C3.56267 8.43733 4.19558 8.58673 4.3618 9.08541V9.08541C4.4465 9.3395 4.38037 9.61963 4.19098 9.80902L3.0125 10.9875C3.00788 10.9921 3.01115 11 3.01767 11H5" stroke="#1D1916" stroke-linecap="round" stroke-linejoin="round"/>
<path id="Vector 56" d="M3 14V14C3.45944 13.5406 4.24175 13.7252 4.44721 14.3416L4.49673 14.4902C4.49861 14.4958 4.49605 14.502 4.49075 14.5046V14.5046C4.08311 14.7084 4.08172 15.2909 4.48936 15.4947V15.4947C4.49524 15.4976 4.49762 15.5048 4.49468 15.5106L4.25 16C4.11193 16.2761 3.77614 16.3881 3.5 16.25L3 16" stroke="#1D1916" stroke-linecap="round" stroke-linejoin="round"/>
</g>
</svg>
