<svg width="20" height="20" viewBox="0 0 20 20" fill="none" xmlns="http://www.w3.org/2000/svg">
<g id="message-icon">
<path id="Ellipse 20" d="M17.25 10C17.25 11.408 17.0174 11.8557 16.8664 12.094C16.8281 12.1544 16.7925 12.205 16.7475 12.2687C16.7334 12.2888 16.7183 12.3101 16.7019 12.3335C16.6394 12.4229 16.5611 12.5379 16.4903 12.6744C16.3354 12.9735 16.25 13.31 16.25 13.7543C16.25 14.6932 16.5129 15.5922 16.7552 16.3176C16.8609 16.634 16.7827 16.8211 16.7086 16.9083C16.6345 16.9955 16.4629 17.1026 16.134 17.049C16.0614 17.0372 15.988 17.0251 15.9138 17.0129C15.1558 16.888 14.3175 16.75 13.5 16.75C12.8303 16.75 12.4629 16.8729 12.1428 16.9799C12.0866 16.9987 12.0319 17.017 11.9772 17.0341C11.6639 17.132 11.1911 17.25 10 17.25C5.99594 17.25 2.75 14.0041 2.75 10C2.75 5.99594 5.99594 2.75 10 2.75C14.0041 2.75 17.25 5.99594 17.25 10Z" stroke="#1D1916" stroke-width="1.5" stroke-linejoin="round"/>
</g>
</svg>
