<svg width="20" height="20" viewBox="0 0 20 20" fill="none" xmlns="http://www.w3.org/2000/svg">
<g id="speach-icon">
<path id="Union" fill-rule="evenodd" clip-rule="evenodd" d="M13.75 17C13.75 17.4142 14.0858 17.75 14.5 17.75C14.9142 17.75 15.25 17.4142 15.25 17L15.25 3C15.25 2.58579 14.9142 2.25 14.5 2.25C14.0858 2.25 13.75 2.58579 13.75 3L13.75 17ZM11.5 15.75C11.0858 15.75 10.75 15.4142 10.75 15V5C10.75 4.58579 11.0858 4.25 11.5 4.25C11.9142 4.25 12.25 4.58579 12.25 5V15C12.25 15.4142 11.9142 15.75 11.5 15.75ZM7.75 13C7.75 13.4142 8.08579 13.75 8.5 13.75C8.91421 13.75 9.25 13.4142 9.25 13L9.25 7C9.25 6.58579 8.91421 6.25 8.5 6.25C8.08579 6.25 7.75 6.58579 7.75 7L7.75 13ZM1.75 12C1.75 12.4142 2.08579 12.75 2.5 12.75C2.91421 12.75 3.25 12.4142 3.25 12L3.25 8C3.25 7.58579 2.91421 7.25 2.5 7.25C2.08579 7.25 1.75 7.58579 1.75 8V12ZM4.75 11C4.75 11.4142 5.08579 11.75 5.5 11.75C5.91421 11.75 6.25 11.4142 6.25 11V9C6.25 8.58579 5.91421 8.25 5.5 8.25C5.08579 8.25 4.75 8.58579 4.75 9V11ZM17.5 11.75C17.0858 11.75 16.75 11.4142 16.75 11V9C16.75 8.58579 17.0858 8.25 17.5 8.25C17.9142 8.25 18.25 8.58579 18.25 9V11C18.25 11.4142 17.9142 11.75 17.5 11.75Z" fill="#A09892"/>
</g>
</svg>
